<svg id="experience-icon" xmlns="http://www.w3.org/2000/svg" viewBox="0 0 500 500">
  <defs>
    <style>
      .cls-1 {
        fill: #000;
        /* stroke: #000; */
        stroke-miterlimit: 10;
        stroke-width: 13px;
      }

      #tuerca  {
        transform-origin: 50% 49.5%;
        animation: rotar-tuerca 10s linear infinite;
      }
      #maletin  { 
        transform-origin: 50%;
        animation: zoom-maletin 10s linear infinite;
      }

      @keyframes rotar-tuerca {
        from {
          transform: rotate(-0.5turn);
        }
      }
      @keyframes zoom-maletin {
        0% {
          opacity: 1;
          transform: scale(0.1);
        }
        70% {
          transform: scale(1);
          opacity: 1;
        }
        85% {
          opacity: 1;
        }
        100% {
          opacity: 0;
        }
      }
    </style>
  </defs>
  <path id="maletin"
    d="M249.6,325.09H169.42c-6.28,0-9.95-3.61-9.95-9.94q0-33.75,0-67.49c0-2-.51-3.09-2.36-3.74a29.33,29.33,0,0,1-3.62-1.74,4.54,4.54,0,0,1-2.67-4.25c0-11.84-.13-23.67.05-35.51.09-6.46,5.51-12.54,12.2-14.35a28,28,0,0,1,7.46-1c10.55,0,21.1.07,31.65,0,3.56,0,7.14.47,10.68-.31.63-3.5.12-7,.28-10.55.06-1.22,0-2.47.15-3.68.94-6.9,4.88-11.76,10.68-15.22a30,30,0,0,1,15.42-4.36c6.86,0,13.72-.09,20.57,0a30.55,30.55,0,0,1,18.65,6.44c5.33,4.1,8.44,9.44,8.23,16.41-.09,3.1.05,6.21,0,9.32-.05,1.58.56,2,2.06,2,14.35,0,28.71-.1,43.06,0,6.56,0,12,2.46,15.33,8.52a15.35,15.35,0,0,1,1.9,7.4c0,11.46,0,22.92,0,34.38a5.07,5.07,0,0,1-3.13,5c-.68.33-1.34.67-2,1-4.11,2.15-3.49.88-3.49,5.58q0,32.77,0,65.56a10.65,10.65,0,0,1-2.52,7.25,9,9,0,0,1-7.31,3.32Q290.17,325,249.6,325.09Zm1.21-126.7H170.3a30.46,30.46,0,0,0-4.16.25c-2.7.37-4,1.64-4,4.32,0,9.64,0,19.28,0,28.93a1.91,1.91,0,0,0,1.17,1.89c5.34,2.73,10.71,5.41,16.21,7.81A205.29,205.29,0,0,0,212.2,253a127.61,127.61,0,0,0,14,2.84c2.08.28,2.08.27,2.09-1.76v-3.22c0-6.18,3.65-10,9.85-10,8-.08,16-.06,23.94,0,5.86,0,9.63,3.92,9.65,9.75,0,1.39,0,2.78,0,4.17,0,1.08.37,1.37,1.45,1.22,4-.56,8-1.44,12-2.35A195.87,195.87,0,0,0,314,244.32c7.41-3,14.58-6.45,21.74-10a3.35,3.35,0,0,0,2.2-3.55c-.1-7.23,0-14.46,0-21.69,0-2.25,0-4.5,0-6.75,0-2.55-.82-3.44-3.38-3.79a22.93,22.93,0,0,0-3.21-.15ZM250,313.3h76.49c3,0,3,0,3-3.09V282.57q0-15.66,0-31.33c0-1.82-.13-1.9-1.66-1.23-8.24,3.62-16.51,7.14-25.05,10a168.89,168.89,0,0,1-27.21,6.87c-3.69.59-3.7.54-3.82,4.45a8.7,8.7,0,0,1-8.72,8.69q-12.94.07-25.87,0a8.53,8.53,0,0,1-8.22-5.81,13.07,13.07,0,0,1-.62-5.22c0-1.19-.42-1.73-1.64-1.86a106.16,106.16,0,0,1-14-2.68,200.71,200.71,0,0,1-29.82-10c-3.5-1.46-7-2.93-10.48-4.48-1.3-.58-1.65-.17-1.57,1.08,0,.21,0,.42,0,.64q0,29.56,0,59.13c0,2.41,0,2.42,2.38,2.42Zm0-126.22h23.46c2,0,2.08-.09,2.08-2.1,0-3.59,0-7.18,0-10.77a7.62,7.62,0,0,0-3-6.12c-3.84-3.2-8.51-3.92-13.26-4-6.43-.15-12.86-.09-19.28,0a24.83,24.83,0,0,0-8.06,1.26c-4.5,1.61-7.8,4.36-7.52,10,.16,3.21,0,6.43,0,9.64,0,2,.08,2.09,2.09,2.09Zm.16,63c-3,0-6,0-9,0-1.17,0-1.61.43-1.61,1.6q.06,8.83,0,17.66c0,1.16.42,1.62,1.6,1.61q8.82,0,17.65,0c1.17,0,1.61-.44,1.61-1.61q-.06-8.82,0-17.65c0-1.17-.43-1.63-1.61-1.61C256,250.13,253.06,250.1,250.17,250.1Z" />
  <path id="tuerca" class="cls-1"
    d="M488.3,229.66a16.75,16.75,0,0,0-12-14.55l-21.91-6.45a16.82,16.82,0,0,1-11.46-11.72q-2.43-8.9-5.65-17.46a16.81,16.81,0,0,1,2.4-16.19l13.94-18.11a16.82,16.82,0,0,0,1.11-19,239.87,239.87,0,0,0-23.86-32.68,16.79,16.79,0,0,0-18.33-4.76L391,96.44a16.82,16.82,0,0,1-16.15-2.75Q367.69,88,360,82.91a16.84,16.84,0,0,1-7.56-14.5l.63-22.92a16.81,16.81,0,0,0-10.22-16,237.37,237.37,0,0,0-38.5-12.44A16.85,16.85,0,0,0,286.75,24L273.83,42.86a16.83,16.83,0,0,1-14.7,7.28q-4.54-.22-9.13-.23t-9.13.23a16.83,16.83,0,0,1-14.7-7.28L213.25,24a16.85,16.85,0,0,0-17.64-6.93,237.37,237.37,0,0,0-38.5,12.44,16.81,16.81,0,0,0-10.22,16l.63,22.92A16.84,16.84,0,0,1,140,82.91Q132.29,88,125.15,93.69A16.82,16.82,0,0,1,109,96.44L87.47,88.78a16.79,16.79,0,0,0-18.33,4.76,239.87,239.87,0,0,0-23.86,32.68,16.82,16.82,0,0,0,1.11,19l13.94,18.11a16.81,16.81,0,0,1,2.4,16.19q-3.21,8.55-5.65,17.46a16.82,16.82,0,0,1-11.46,11.72l-21.91,6.45a16.75,16.75,0,0,0-12,14.55c-.59,6.7-.91,13.48-.91,20.34s.32,13.64.91,20.35a16.74,16.74,0,0,0,12,14.54l21.91,6.45a16.82,16.82,0,0,1,11.46,11.72q2.43,8.9,5.65,17.46a16.81,16.81,0,0,1-2.4,16.19L46.39,354.82a16.82,16.82,0,0,0-1.11,19,240.65,240.65,0,0,0,23.85,32.68,16.81,16.81,0,0,0,18.34,4.76L109,403.56a16.82,16.82,0,0,1,16.15,2.75Q132.29,412,140,417.09a16.84,16.84,0,0,1,7.56,14.5l-.63,22.92a16.81,16.81,0,0,0,10.22,16,237.37,237.37,0,0,0,38.5,12.44A16.85,16.85,0,0,0,213.25,476l12.92-18.86a16.83,16.83,0,0,1,14.7-7.28q4.55.22,9.13.23t9.13-.23a16.83,16.83,0,0,1,14.7,7.28L286.75,476a16.85,16.85,0,0,0,17.64,6.93,237.37,237.37,0,0,0,38.5-12.44,16.81,16.81,0,0,0,10.22-16l-.63-22.92a16.84,16.84,0,0,1,7.56-14.5q7.66-5.05,14.81-10.78A16.82,16.82,0,0,1,391,403.56l21.53,7.66a16.81,16.81,0,0,0,18.34-4.76,240.65,240.65,0,0,0,23.85-32.68,16.82,16.82,0,0,0-1.11-19l-13.94-18.11a16.81,16.81,0,0,1-2.4-16.19q3.21-8.55,5.65-17.46a16.82,16.82,0,0,1,11.46-11.72l21.91-6.45a16.74,16.74,0,0,0,12-14.54c.59-6.71.91-13.49.91-20.35S488.89,236.36,488.3,229.66ZM250,393.3A151.46,151.46,0,1,1,401.46,241.84,151.46,151.46,0,0,1,250,393.3Z" />
</svg>