<svg xmlns="http://www.w3.org/2000/svg" xmlns:xlink="http://www.w3.org/1999/xlink" viewBox="0 0 439.09 428.11">
  <defs>
    <radialGradient id="radial-gradient" cx="-268.73" cy="285.12" r="0.56"
      gradientTransform="matrix(545.67, 0, 0, -528.31, 146789.57, 150737.53)" gradientUnits="userSpaceOnUse">
      <stop offset="0" stop-color="#34364e" stop-opacity="0.98" />
      <stop offset="1" stop-color="#0c0824" />
    </radialGradient>
  </defs>
  <g id="Capa_2" data-name="Capa 2">
    <g id="Layer_1" data-name="Layer 1">
      <path d="M18.3,18.29H420.79V409.81H18.3Z" style="fill:url(#radial-gradient)" />
      <path
        d="M18.3,18.29H420.79V409.81H18.3ZM0,428.11H439.09V0H0ZM296,175.63c-14.46,0-19.4,7.32-19.4,13.36,0,6.59,3.3,11.16,22.69,21.22C328,224.12,337,237.47,337,257.05c0,29.27-22.32,45-52.51,45-15.92,0-29.64-3.29-37.5-7.86-1.29-.55-1.47-1.47-1.47-2.93V264.37c0-1.83.92-2.38,2.2-1.47a67.91,67.91,0,0,0,36.77,10.8c14.45,0,20.49-6,20.49-14.27,0-6.59-4.21-12.44-22.69-22-26-12.44-36.77-25.06-36.77-46.1,0-23.6,18.48-43.18,50.5-43.18,15.73,0,26.71,2.38,32.75,5.12a4.06,4.06,0,0,1,1.82,3.66V182c0,1.46-.91,2.38-2.74,1.83-8.05-5.13-19.94-8.24-31.83-8.24ZM138.68,197.41c4.21.36,7.5.36,14.82.36,21.4,0,41.53-7.5,41.53-36.59,0-23.23-14.46-34.94-38.79-34.94-7.32,0-14.27.36-17.56.55v70.62Zm-32.57-97.15c0-1.28,2.56-2.2,4-2.2,11.71-.55,29.09-.91,47.2-.91,50.68,0,70.44,27.81,70.44,63.3,0,46.47-33.67,66.41-75,66.41-7,0-9.33-.37-14.28-.37v70.26c0,1.46-.54,2.19-2.19,2.19h-28c-1.47,0-2.2-.55-2.2-2.19V100.26Z"
        style="fill:#31c5f0" />
    </g>
  </g>
</svg>