<svg id="Capa_1" data-name="Capa 1" xmlns="http://www.w3.org/2000/svg" viewBox="0 0 500 500">
  <defs>
    <style>
      .cls-1 {
        fill: none;
        stroke: #000;
        stroke-linecap: round;
        stroke-miterlimit: 10;
        stroke-width: 4px;
      }

      .cls-2 {
        fill: #000;
      }

      .cls-3 {
        fill: #000;
      }

      #circunferencia {
        stroke-dasharray: 1000;
        animation: mostrar-circunferencia 5s linear infinite;
        transform-origin: 50% 49.5%;
        transform: rotate(-90deg);
      }

      @keyframes mostrar-circunferencia {
        0% {
          stroke-dashoffset: 1000;
        }
        25% {
          stroke-dashoffset: 0;
        }
      }

      #task-1, #check-1, #task-4, #check-4 {
        stroke-dasharray: 500;
        animation: mostrar-task-1-4 5s linear infinite;
      }

      @keyframes mostrar-task-1-4 {
        0% {
          opacity: 0;
        }
        15% {
          opacity: 0;
          stroke-dashoffset: 500;
        }
        16% {
          opacity: 1;
        }
        50% {
          stroke-dashoffset: 0;
        }
      }

      #task-3, #check-3, #task-5, #check-5 {
        stroke-dasharray: 500;
        animation: mostrar-task-3-5 5s linear infinite;
      }

      @keyframes mostrar-task-3-5 {
        0% {
          opacity: 0;
        }
        30% {
          opacity: 0;
          stroke-dashoffset: 500;
        }
        31% {
          opacity: 1;
        }
        60% {
          stroke-dashoffset: 0;
        }
      }

      #task-6, #check-6, #task-8, #check-8 {
        stroke-dasharray: 500;
        animation: mostrar-task-6-8 5s linear infinite;
      }

      @keyframes mostrar-task-6-8 {
        0% {
          opacity: 0;
        }
        45% {
          opacity: 0;
          stroke-dashoffset: 500;
        }
        46% {
          opacity: 1;
        }
        70% {
          stroke-dashoffset: 0;
        }
      }

      #task-2, #check-2, #task-7, #check-7 {
        stroke-dasharray: 500;
        animation: mostrar-task-2-7 5s linear infinite;
      }

      @keyframes mostrar-task-2-7 {
        0% {
          opacity: 0;
        }
        60% {
          opacity: 0;
          stroke-dashoffset: 500;
        }
        61% {
          opacity: 1;
        }
        80% {
          stroke-dashoffset: 0;
        }
      }

    </style>
  </defs>
  <g id="task-1">
    <line class="cls-1" x1="250" y1="179.54" x2="250" y2="145.7" />
    <circle class="cls-1" cx="250" cy="126.43" r="16.96" />
    <g id="check-1">
      <line class="cls-1" x1="243.89" y1="128.66" x2="248.03" y2="132.19" />
      <line class="cls-1" x1="256.11" y1="118.49" x2="248.55" y2="132.19" />
    </g>
  </g>
  <g id="task-2">
    <line class="cls-1" x1="202.3" y1="199.3" x2="178.37" y2="175.37" />
    <circle class="cls-1" cx="164.75" cy="161.75" r="16.96" />
    <g id="check-2">
      <line class="cls-1" x1="158.64" y1="165.07" x2="162.78" y2="168.6" />
      <line class="cls-1" x1="170.86" y1="154.9" x2="163.3" y2="168.6" />
    </g>
  </g>
  <g id="task-3">
    <line class="cls-1" x1="182.54" y1="247" x2="148.7" y2="247" />
    <circle class="cls-1" cx="129.43" cy="247" r="16.96" />
    <g id="check-3">
      <line class="cls-1" x1="123.33" y1="250.32" x2="127.47" y2="253.85" />
      <line class="cls-1" x1="135.54" y1="240.15" x2="127.99" y2="253.85" />
    </g>
  </g>
  <g id="task-4">
    <line class="cls-1" x1="202.3" y1="294.7" x2="178.37" y2="318.63" />
    <circle class="cls-1" cx="164.75" cy="332.25" r="16.96" />
    <g id="check-4">
      <line class="cls-1" x1="158.64" y1="335.57" x2="162.78" y2="339.1" />
      <line class="cls-1" x1="170.86" y1="325.4" x2="163.3" y2="339.1" />
    </g>
  </g>
  <g id="task-5">
    <line class="cls-1" x1="250" y1="314.46" x2="250" y2="348.3" />
    <circle class="cls-1" cx="250" cy="367.57" r="16.96" />
    <g id="check-5">
      <line class="cls-1" x1="243.89" y1="370.89" x2="248.03" y2="374.42" />
      <line class="cls-1" x1="256.11" y1="360.72" x2="248.55" y2="374.42" />
    </g>
  </g>
  <g id="task-6">
    <line class="cls-1" x1="297.7" y1="294.7" x2="321.63" y2="318.63" />
    <circle class="cls-1" cx="335.25" cy="332.25" r="16.96" />
    <g id="check-6">
      <line class="cls-1" x1="329.14" y1="335.57" x2="333.28" y2="339.1" />
      <line class="cls-1" x1="341.36" y1="325.4" x2="333.8" y2="339.1" />
    </g>
  </g>
  <g id="task-7">
    <line class="cls-1" x1="317.46" y1="247" x2="351.3" y2="247" />
    <circle class="cls-1" cx="370.57" cy="247" r="16.96" />
    <g id="check-7">
      <line class="cls-1" x1="363.22" y1="250.32" x2="367.36" y2="253.85" />
      <line class="cls-1" x1="375.44" y1="240.15" x2="367.88" y2="253.85" />
    </g>
  </g>
  <g id="task-8">
    <line class="cls-1" x1="297.7" y1="199.3" x2="321.63" y2="175.37" />
    <circle class="cls-1" cx="335.25" cy="161.75" r="16.96" />
    <g id="check-8">
      <line class="cls-1" x1="328.27" y1="165.94" x2="332.41" y2="169.47" />
      <line class="cls-1" x1="340.49" y1="155.77" x2="332.93" y2="169.47" />
    </g>
  </g>
  <circle id="circunferencia" class="cls-1" cx="250" cy="247" r="66.9" />
  <circle class="cls-2" cx="250" cy="219.45" r="25" />
  <path class="cls-3"
    d="M281,243.33a10.32,10.32,0,0,0-13,.51,27.26,27.26,0,0,1-35.94,0,10.32,10.32,0,0,0-13-.51,51.59,51.59,0,0,0-20.34,35.47,5.22,5.22,0,0,0,5.16,5.86h92.32a5.22,5.22,0,0,0,5.16-5.86A51.59,51.59,0,0,0,281,243.33Z" />
</svg>