<svg id="Capa_1" data-name="Capa 1" xmlns="http://www.w3.org/2000/svg" viewBox="0 0 500 500"><defs><style>.cls-1{fill:#4ebe8b;}.cls-2{fill:#35495e;}</style></defs><path class="cls-1" d="M371.66,250.27c.27.64.51,1.3.82,1.92L492.31,491.86c.31.62.58,1.25.95,2.06h-1.95q-71.06,0-142.11,0a2.66,2.66,0,0,1-2.79-1.76q-23.52-47.2-47.13-94.35-24.19-48.39-48.41-96.77c-.23-.47-.5-.93-.8-1.48a3.68,3.68,0,0,0-1,1.64l-47,94q-24.27,48.54-48.53,97.09a2.44,2.44,0,0,1-2.55,1.6q-71.22-.06-142.43,0H6.88a4.22,4.22,0,0,1,.78-2.06Q67.56,372,127.48,252.18c.31-.62.55-1.27.82-1.91-.18-1.41.52-2.55,1.11-3.73q31.78-63.6,63.6-127.2c2.22-4.44,4.41-8.91,6.7-13.33.35-.67.58-1.81,1.83-1.11L238.08,178Q243.54,189,249,199.89c.26.53.54,1,.81,1.56.59-.13.63-.63.81-1q23.83-47.62,47.65-95.27a2.68,2.68,0,0,0,.12-.3c.67-.53,1.09-.14,1.45.41a13.07,13.07,0,0,1,.85,1.56Q335.78,177,370.84,247.12A5.58,5.58,0,0,1,371.66,250.27Z"/><path class="cls-2" d="M201.54,104.9c-.85.28-.95,1.12-1.28,1.77L129.34,248.46c-.31.62-.69,1.2-1,1.81-.35-.61-.73-1.19-1.05-1.82L7.67,9.31c-.15-.29-.27-.59-.43-.87-.5-.85-.39-1.31.71-1.23.32,0,.65,0,1,0q70.72,0,141.44,0a3.14,3.14,0,0,1,3.32,2q23.23,46.67,46.59,93.27C200.68,103.28,201.12,104.09,201.54,104.9Z"/><path class="cls-2" d="M371.66,250.27c-.35-.6-.73-1.19-1-1.82q-35.47-70.89-70.93-141.78c-.32-.65-.42-1.49-1.28-1.77q9-18,18.1-36.08,14.94-29.88,29.84-59.77a2.94,2.94,0,0,1,3.09-1.88q70.8.07,141.6,0c.38,0,.76,0,1.13,0,.94,0,1,.38.62,1.09-.21.38-.39.77-.58,1.16Q432.57,128.74,372.92,248C372.54,248.79,372.08,249.52,371.66,250.27Z"/></svg>